<?xml version="1.0" encoding="UTF-8" standalone="no"?>
<!DOCTYPE svg PUBLIC "-//W3C//DTD SVG 1.1//EN" "http://www.w3.org/Graphics/SVG/1.1/DTD/svg11.dtd">
<svg xmlns:dc="http://purl.org/dc/elements/1.1/" xmlns:xl="http://www.w3.org/1999/xlink" version="1.1" xmlns="http://www.w3.org/2000/svg" viewBox="0 0 512 512" width="512" height="512">
  <defs>
    <clipPath id="inner_stroke_clip_path">
      <path d="M 353.72205 75.77795 C 407.69274 129.74837 407.69274 217.25163 353.72205 271.22205 C 299.75163 325.19274 212.24837 325.19274 158.27795 271.22205 C 104.30726 217.25163 104.30726 129.74837 158.27795 75.77795 C 212.24837 21.80726 299.75163 21.80726 353.72205 75.77795"/>
    </clipPath>
  </defs>
  <metadata> Produced by OmniGraffle 7.7.1 
    <dc:date>2020-08-26 14:11:44 +0000</dc:date>
  </metadata>
  <g id="Master" fill-opacity="1" stroke-dasharray="none" stroke="none" stroke-opacity="1" fill="none">
    <title>Master</title>
    <g id="Master: Vehicle Background">
      <title>Vehicle Background</title>
      <g id="Graphic_14">
        <circle cx="256" cy="173.5" r="138.200217778279" fill="white"/>
        <circle cx="256" cy="173.5" r="138.200217778279" stroke="black" stroke-linecap="round" stroke-linejoin="round" stroke-width="2" clip-path="url(#inner_stroke_clip_path)"/>
      </g>
    </g>
    <g id="Master: Ego Car">
      <title>Ego Car</title>
      <g id="Group_8">
        <title>Car</title>
        <g id="Graphic_13">
          <path d="M 344.6564 154.24585 L 340.4718 149.89006 L 325.7846 110.97016 C 323.28204 104.39613 316.88206 100.04034 309.7436 100 L 204.84103 100 C 197.70256 100 191.30256 104.39613 188.8 110.97016 L 174.31794 149.40608 L 168.28718 154.89116 C 163.03589 159.2873 160 165.74032 160 172.51603 L 160 229.2221 C 160.04102 238.49834 167.71282 246 177.14871 246 L 187.97948 246 C 197.41539 246 205.08718 238.49834 205.1282 229.2221 L 205.1282 220.99446 L 306.8718 220.99446 L 306.8718 229.2221 C 306.91282 238.49834 314.58464 246 324.0205 246 L 334.85128 246 C 344.2872 246 351.95896 238.49834 352 229.2221 L 352 171.02376 C 351.95896 164.6917 349.33334 158.64198 344.6564 154.24585 Z M 196.51282 113.7127 C 197.82563 110.28453 201.14872 108.0663 204.84103 108.0663 L 309.78462 108.0663 C 313.47694 108.0663 316.8 110.32487 318.11284 113.7127 L 330.91282 147.59116 L 321.35386 147.59116 C 319.09744 132.46685 304.7795 122.021 289.39487 124.27955 C 277.1282 126.05415 267.48718 135.53204 265.68205 147.59116 L 183.71282 147.59116 Z M 312.9846 147.59116 L 273.96923 147.59116 C 276.22564 136.98398 286.81025 130.2083 297.6 132.42652 C 305.3128 134.03978 311.3436 139.9685 312.9846 147.59116 Z M 196.92308 229.2221 C 196.88206 234.06187 192.90256 237.9337 187.97948 237.9337 L 177.14871 237.9337 C 172.22564 237.9337 168.24615 234.06187 168.20513 229.2221 L 168.20513 218.65524 C 170.66666 220.22817 173.90769 220.99446 177.14871 220.99446 L 196.92308 220.99446 Z M 343.79486 229.2221 C 343.75384 234.06187 339.77436 237.9337 334.85128 237.9337 L 324.0205 237.9337 C 319.09744 237.9337 315.11794 234.02154 315.07692 229.2221 L 315.07692 220.99446 L 334.85128 220.99446 C 338.0923 220.99446 341.33334 220.22817 343.79486 218.65524 Z M 334.85128 212.92817 L 177.14871 212.92817 C 172.26666 212.9685 168.24615 209.137 168.20513 204.29723 L 168.20513 172.51603 C 168.20513 168.07956 170.21538 163.84475 173.66153 160.98121 C 173.70256 160.94088 173.7846 160.86022 173.82564 160.81989 L 179.40513 155.65745 L 334.76924 155.65745 L 338.7077 159.8116 C 338.7487 159.89226 338.8718 159.9326 338.9128 160.01325 C 341.98975 162.8768 343.75384 166.86961 343.75384 171.02376 L 343.75384 204.29723 L 343.79486 204.29723 C 343.75384 209.09668 339.73336 212.9685 334.85128 212.92817 Z" fill="black"/>
        </g>
        <g id="Graphic_12">
          <path d="M 214.15384 171.79005 L 183.3846 171.79005 C 181.1282 171.79005 179.28204 173.60497 179.28204 175.82319 L 179.28204 196.79557 C 179.28204 199.01382 181.1282 200.82873 183.3846 200.82873 L 214.15384 200.82873 C 216.41026 200.82873 218.2564 199.01382 218.2564 196.79557 L 218.2564 175.82319 C 218.2564 173.60497 216.41026 171.79005 214.15384 171.79005 Z M 210.05128 192.76242 L 187.48718 192.76242 L 187.48718 179.85635 L 210.05128 179.85635 Z" fill="black"/>
        </g>
        <g id="Graphic_11">
          <path d="M 328.6154 171.79005 L 297.84614 171.79005 C 295.58974 171.79005 293.7436 173.60497 293.7436 175.82319 L 293.7436 196.79557 C 293.7436 199.01382 295.58974 200.82873 297.84614 200.82873 L 328.6154 200.82873 C 330.8718 200.82873 332.71796 199.01382 332.71796 196.79557 L 332.71796 175.82319 C 332.71796 173.60497 330.8718 171.79005 328.6154 171.79005 Z M 324.51284 192.76242 L 301.94872 192.76242 L 301.94872 179.85635 L 324.51284 179.85635 Z" fill="black"/>
        </g>
        <g id="Graphic_10">
          <path d="M 275.8154 188.72927 L 236.18462 188.72927 C 233.9282 188.72927 232.08205 190.5442 232.08205 192.76242 C 232.08205 194.98066 233.9282 196.79557 236.18462 196.79557 L 275.8154 196.79557 C 278.0718 196.79557 279.91795 194.98066 279.91795 192.76242 C 279.91795 190.5442 278.0718 188.72927 275.8154 188.72927 Z" fill="black"/>
        </g>
        <g id="Graphic_9">
          <path d="M 275.8154 176.22651 L 236.18462 176.22651 C 233.9282 176.22651 232.08205 178.04144 232.08205 180.25967 C 232.08205 182.4779 233.9282 184.29281 236.18462 184.29281 L 275.8154 184.29281 C 278.0718 184.29281 279.91795 182.4779 279.91795 180.25967 C 279.91795 178.04144 278.0718 176.22651 275.8154 176.22651 Z" fill="black"/>
        </g>
      </g>
    </g>
    <g id="Master: Invisible Circle">
      <title>Invisible Circle</title>
      <g id="Graphic_4">
        <title>Circle 512x512</title>
        <path d="M 437.01906 74.98095 C 536.99365 174.95505 536.99365 337.04497 437.01906 437.01906 C 337.04497 536.99365 174.95505 536.99365 74.98095 437.01906 C -24.99365 337.04497 -24.99365 174.95505 74.98095 74.98095 C 174.95505 -24.99365 337.04497 -24.99365 437.01906 74.98095" fill="white" fill-opacity="0"/>
      </g>
    </g>
  </g>
</svg>
